<svg xmlns="http://www.w3.org/2000/svg" xmlns:se="http://svg-edit.googlecode.com" xmlns:xlink="http://www.w3.org/1999/xlink" xmlns:dc="http://purl.org/dc/elements/1.1/" xmlns:cc="http://creativecommons.org/ns#" xmlns:rdf="http://www.w3.org/1999/02/22-rdf-syntax-ns#" xmlns:inkscape="http://www.inkscape.org/namespaces/inkscape" width="420.38623785972595" height="339.2592570781708" style="">                                    <title>my vector image</title>                                    <!-- Created with Vector Paint - http://www.vectorpaint.yaks.com/ https://chrome.google.com/webstore/detail/hnbpdiengicdefcjecjbnjnoifekhgdo -->                                    <rect id="backgroundrect" width="100%" height="100%" x="0" y="0" fill="#FFFFFF" stroke="none"/>                                <g class="currentLayer" style=""><title>Layer 1</title><path fill="#e76767" stroke="#222222" style="color: rgb(0, 0, 0);" stroke-width="2" stroke-linejoin="round" stroke-dashoffset="" fill-rule="nonzero" marker-start="" marker-mid="" marker-end="" id="svg_28" d="M219.37685993123003,309.7841394006399 C210.70445277138123,306.0706206211722 201.26457438620363,311.49871134809695 191.99936335698393,306.0899091011269 C199.49250056169012,305.6237626471872 210.75196158472764,306.0547909007391 208.76357772568815,294.9424057656082 C212.04217714714025,281.9656313351519 205.38858503454912,268.3515902885397 210.9278375412779,257.0578462769294 C202.25265944347112,248.78078908706897 193.14705247935746,238.98118005942706 188.52183613280715,227.42022722259497 C187.59357189368845,232.08427600561322 186.7380496908332,235.79452271996342 185.418778583226,227.7534865634873 C184.66251884825004,223.81844995818514 185.12143335044223,237.48056972737209 182.2299693450365,227.8944506661065 C179.1802376134496,219.37044590709655 170.96964363214684,197.14444738416645 168.422090374821,217.75928300857018 C167.3640243933718,228.39713026750763 164.04369385914885,220.8492228196612 162.5260845101291,214.09848083376673 C160.98414593214477,201.09921464038973 155.414629279631,189.05663936595374 153.95589745064544,176.08275378577764 C159.65722035389152,167.8642007271755 153.14313809278045,166.7451839351423 150.11296014367247,174.94442886174832 C146.77620050173354,187.95179169674333 143.91771262406104,200.82541255482445 147.3986199995713,214.22581624474446 C142.77263722333936,218.01005290003428 133.84369229752218,196.61546352354742 137.950497582468,188.40879012478223 C141.5133343241872,179.12302305883037 140.72118013312055,169.64495092857626 141.31407243675432,163.363460419381 C144.57168347657034,156.2774644102599 138.1444828964001,148.57719467500021 141.56093157170335,141.0205322421106 C132.83073758023872,150.53832115074943 125.02362951453114,157.12159825438152 127.47603740692622,172.05340702733685 C126.39239429182022,175.77824538342952 131.11461312137055,197.19666286174564 128.10717258573135,189.30970854641683 C122.42909804906571,173.9131584405777 122.42473529558161,156.86152312067586 126.69770842792606,141.15114954422637 C126.70296534935937,129.1598071452259 116.977287306551,161.8589000267332 117.69523538419215,145.83127369820414 C116.77477300602504,133.74370507190284 121.75635949572907,120.4519477003131 126.47431383202759,110.89486453219811 C121.1026735978896,104.50281163051002 103.70458259039569,109.03218496458803 111.93526095938459,95.46252805651729 C120.03527289612772,88.56580087108965 119.1672028639342,79.08199034435864 108.14304557472174,87.4209711209063 C91.11985658670308,99.92383654054467 76.99638546201807,115.98692498020975 61.39076709939809,130.18611542560518 C76.38427346054789,110.9125022405666 93.28708386071807,92.26187846261743 114.20749892381832,79.33162041733887 C134.491718407116,66.55827410736933 163.9044689623065,65.23770596493108 181.40729553164627,83.54278787527204 C185.85919068716555,91.38374658455012 196.20702292527045,96.58160380468033 198.6743172400211,103.64031295244376 C196.86057125887103,114.2204225097955 203.6919947062504,119.4666335811014 204.42537946345718,128.76565594988747 C208.73635964649705,135.9410491014651 200.53596507539018,148.84144586778658 212.8030158080733,145.12274877505723 C226.7573123228031,145.10313603639676 245.85445016397375,142.0113882373707 246.94602287833172,124.60725422673508 C252.51513666400137,99.54171239536655 255.0789126825767,71.53769887237368 272.9118739179991,51.58880219449003 C282.82293950607277,45.79496730001512 276.6668585076479,47.33692553001093 269.4243634561607,46.38261250823308 C263.0216001911592,38.930941113716585 275.8871735377202,26.968919562496346 282.22097778469674,25.60538222859808 C281.1283242080161,7.994498902244935 292.57248495483697,36.163157239362576 295.84402929292247,23.23301710634037 C300.7529720066296,23.32637413540661 303.14617812022107,35.10423639405187 306.13044889748,25.490928731642768 C315.0300631494679,33.02135568746553 324.43603193489446,44.412514874973795 312.68010135594136,54.89965061808418 C326.05431869891555,61.31129660639081 299.0522842273569,57.159114754766335 310.5721053387347,66.98223745155603 C320.0796653591454,76.17147368353896 313.3589713465972,93.14656429694794 305.55440822046864,100.54437926832041 C305.2512754611068,106.1066639691337 314.70515592675326,114.18775098872993 316.6060095873779,120.93582029681042 C326.42666595284277,139.94729488365806 328.39585959211456,162.56519444302904 324.63187436686115,183.39833478428093 C319.33224904337436,203.03385016251696 299.60904625042866,211.57844043629777 285.66351454676646,224.05237804900918 C273.75106527337067,233.81839190957976 277.94246277627917,250.94732853961858 272.3022773780412,263.7725169383596 C272.86306806985914,271.1782909870435 276.996668915056,279.61167035092706 282.86986858417373,284.08216616493576 C291.38130586182956,288.8385893748803 301.3526737430636,291.90919157590787 308.23469137448313,298.873138573553 C301.9493097608366,302.1555701433423 289.13395720947887,288.83337175753013 289.0100019498611,299.2565204494677 C279.67280548808816,287.12734844867043 265.6558091309523,295.2661338657676 255.3928835435463,285.93828195026936 C263.9335925388653,287.56589360857504 275.035424527039,286.72701668588803 265.68257521316826,276.49405063762885 C261.98955351427867,267.8403129184358 250.86638923372692,264.8539688506789 250.57130398585306,254.39511239707502 C240.09044707042102,260.9750781315022 232.95868145376343,269.9335699035845 225.34802503336795,278.86578689452017 C212.71364814368823,278.0765412057875 212.1688935187771,303.5449990435589 225.8114693314463,303.16713939165857 C231.41416845819472,304.60001895839036 252.4415692419559,312.40689119952117 235.88320019497732,310.39031648516806 C230.9476977455253,309.50847037101744 225.5933611350515,306.4196310743223 225.74429864935388,312.21527395672393 C223.4809925382951,311.8081720652193 221.46033019906764,310.68238514446443 219.37685010516626,309.7841394006399 L219.37685993123003,309.7841394006399 z" class="" fill-opacity="1" opacity="1"/></g></svg>