<svg xmlns="http://www.w3.org/2000/svg" xmlns:se="http://svg-edit.googlecode.com" xmlns:xlink="http://www.w3.org/1999/xlink" xmlns:dc="http://purl.org/dc/elements/1.1/" xmlns:cc="http://creativecommons.org/ns#" xmlns:rdf="http://www.w3.org/1999/02/22-rdf-syntax-ns#" xmlns:inkscape="http://www.inkscape.org/namespaces/inkscape" width="777" height="480" style="">                                    <title>my vector image</title>                                    <!-- Created with Vector Paint - http://www.vectorpaint.yaks.com/ https://chrome.google.com/webstore/detail/hnbpdiengicdefcjecjbnjnoifekhgdo -->                                    <rect id="backgroundrect" width="100%" height="100%" x="0" y="0" fill="#FFFFFF" stroke="none"/>                                <g class="currentLayer" style=""><title>Layer 1</title><path fill="#e9e98a" stroke="#000000" style="color: rgb(0, 0, 0);" stroke-width="2" stroke-linejoin="round" stroke-dashoffset="" fill-rule="nonzero" marker-start="" marker-mid="" marker-end="" id="svg_8" d="M231.9819921165767,373.9878602441396 C249.79130374685894,360.1076874362507 288.6083588223672,382.5701431009939 287.2164381986545,346.37065229724726 C304.8574049569239,333.93984838556776 318.4442836548931,306.69694476359615 289.9197824316525,297.5772503741827 C273.66521184422373,289.78007378222327 266.0358820178558,314.8215583956694 260.37867621654095,316.4005406170683 C248.6388062702286,300.04204691982534 255.2629120814735,273.3772788028736 259.88372448178427,256.0942996111111 C274.64906256618247,246.90834197520678 298.8596000310011,236.42522468627925 281.7737049415957,215.95753424699217 C278.23369288334794,193.61666182836842 276.0667035935578,167.55582509074608 254.96471237812574,154.0519339392815 C239.21559904245348,144.5925611674123 216.9776233325704,135.5744804853606 224.7063631227852,113.36823264428142 C214.5386679436287,98.03188348593744 202.76506260874297,77.06569419048232 209.51466104669475,58.130058311240944 C224.90885092499283,55.40198988739819 223.101056732407,94.30776828020194 226.0357185627771,86.08635596937597 C220.25341258221366,73.57635313870578 239.8571148144379,44.77255006739274 238.73548484101434,71.33002908273897 C237.55215004945438,80.8572499851278 238.31850940042034,100.16109215933082 243.55261154288397,81.0411720029997 C257.74188201856606,59.96191255278228 243.82527197215236,117.58174494362345 257.7529007361007,94.71552120517535 C267.57820058874404,91.53502122091234 264.58438484881435,108.79701956697792 274.06706296295476,100.26195116002523 C284.4483854149137,108.1928768697804 292.0508476834559,109.96612059056241 292.0156179756532,123.14616710571462 C305.84933104033234,128.1471554489179 316.16973356910387,136.41955574302983 313.4291370143749,149.568130989629 C340.42698737740284,143.05398594164694 317.3458080824074,176.7254961565022 336.56071562146053,186.11517931356371 C346.91827990713045,202.53513632281073 351.57418616803636,218.98570423499285 350.8277812616898,238.48564939287064 C372.1468261182329,232.5939260378725 386.207056845789,208.34678529908206 408.2249148054499,200.80242035072712 C432.9447585260853,189.34641068084505 441.8015734847864,160.86624092796376 447.1703907696032,136.26598802781768 C449.56742974954227,124.39647456804968 464.6140470135041,124.97761380565103 459.99195161184025,138.3107148354685 C477.30680961375276,119.65001859968268 470.08005542454396,92.48174037422547 474.96972453247,69.78897841906586 C476.53743143606664,57.09629128948207 471.44941031855643,29.115450570117034 482.13649463476145,26.50255038561727 C498.0822241546847,40.81559275679879 478.594792033538,72.45846651041373 494.1383987403156,81.95643498189793 C505.0957586126968,61.51128008406269 501.21188709698333,37.05683651445581 501.80528277105645,14.742454300296444 C501.5374524645274,1.862147090100656 514.3180327340492,-6.664559166840796 513.7001845635375,11.720925731074878 C519.0600510271393,27.590746853130426 513.0889929059476,60.353937390554435 516.1900826533652,66.12943591685408 C528.3738710687323,47.29176096465085 525.7695292579938,21.923337417507852 538.6878434965886,4.227714801486044 C556.4613820302375,10.894748328668761 533.65052357381,40.81429466130632 534.2276779601352,56.663799079541846 C536.610151101154,68.83567822351213 554.029958613967,21.017749778247847 554.9070938113979,47.38120880034859 C546.8813316602586,54.348962751174525 548.2243623852582,73.53399899983316 557.1918022491034,58.08045898823838 C560.655558744442,45.38967371948503 584.3484881799534,49.644981674748394 569.0580251877406,61.22812923192548 C557.7037499782972,71.08988141721603 588.9787947902906,70.39650220218894 575.2871175227585,81.23837685844205 C584.4219513281657,96.32528036497806 559.568267924926,105.24718122774553 573.7895832462557,116.12174977736339 C572.9716321466453,120.50155414653688 585.1403113342972,129.02770192053143 579.7615017330488,139.5442225271124 C585.1237681638729,149.22870920744907 560.6706528780276,155.5163969690838 576.6266464087805,162.1422084174182 C577.5495772075367,184.72703222322568 549.0068875533207,200.3012649270572 555.2613229386394,221.38680353686078 C553.4176650846225,246.79771707007922 534.2445984839031,268.1221958147124 513.7258294965131,281.55272947689895 C494.7699221958683,285.1472615457048 480.0660474234694,292.76047083739206 463.7725792537592,303.2649161370874 C453.0437596581493,303.44933626137174 449.23492108053057,303.3991180788964 443.62437124617475,311.14260483765105 C434.7936691385937,304.29216249313555 420.2323282697631,293.93986606009173 422.7279923185998,314.68642061757697 C426.5072313002354,340.45108026576304 459.194588910477,343.0123585133569 476.5804195285469,356.7188733142243 C495.1235022753507,363.2640066184854 519.3761825611778,385.01869835888374 499.2946302475467,402.04918288384846 C497.35168318274214,426.25787886436984 465.1371794956841,411.757835272066 456.77063709033814,420.13293605116877 C444.76661980608975,421.92747759445746 446.01725933936075,430.4007053360746 435.3526954704823,420.2969640009644 C424.9660598834936,434.21721173355445 401.7320675799711,419.1497041886906 390.6546338748263,413.112413009282 C372.68650177083634,421.68577523317873 364.4716252198555,378.59359360498274 361.16765522277217,408.7576498077507 C353.8684944747158,429.2602529780528 324.2232538319303,407.22585184797657 324.36901788006173,433.4406185600081 C310.8059275366422,430.65377357994987 310.1676268151068,451.85215593251786 295.6203385846443,449.7226906588567 C304.76999482925567,445.474386381578 310.99339667591636,421.1812387235787 294.56845860257977,432.89274679285666 C281.1356155379368,422.68864456346984 288.8924907932003,458.00290971417155 277.8162344304629,439.61564370848544 C275.3797846677236,415.7438940722438 302.4911429153922,415.2728061626887 317.76873061166043,410.98436658418217 C323.2554783622517,397.11023142972607 330.2019797729831,378.8712200042262 328.74643737613496,365.49125168958994 C314.30545712859566,371.2959573644033 301.64144885284327,383.7399686429849 284.7935580619934,384.79693534808143 C285.8423588407994,397.406831154894 276.0724846467144,417.7822511555134 261.05099911521074,406.0499433701367 C282.64696094668807,414.46964731402153 273.10467609897535,368.232089750448 260.0538504615547,391.08077410565545 C254.9379504792636,406.15573815251656 255.57182861966442,369.30144873922774 240.7753211493831,380.02907589828203 C233.02007606055727,385.6696328702353 238.28542305957222,398.73097911878546 230.58095463616434,383.5797746031246 C229.0825147116353,380.52512950479843 228.84793678140525,376.1873924859607 231.9819921165767,373.98783005588257 L231.9819921165767,373.9878602441396 z" class="selected" fill-opacity="1"/></g></svg>