<svg xmlns="http://www.w3.org/2000/svg" xmlns:se="http://svg-edit.googlecode.com" xmlns:xlink="http://www.w3.org/1999/xlink" xmlns:dc="http://purl.org/dc/elements/1.1/" xmlns:cc="http://creativecommons.org/ns#" xmlns:rdf="http://www.w3.org/1999/02/22-rdf-syntax-ns#" xmlns:inkscape="http://www.inkscape.org/namespaces/inkscape" width="777" height="480" style="">                                    <title>my vector image</title>                                    <!-- Created with Vector Paint - http://www.vectorpaint.yaks.com/ https://chrome.google.com/webstore/detail/hnbpdiengicdefcjecjbnjnoifekhgdo -->                                    <rect id="backgroundrect" width="100%" height="100%" x="0" y="0" fill="#FFFFFF" stroke="none"/>                                <g class="currentLayer" style=""><title>Layer 1</title><path fill="#dadada" stroke="#000000" style="color: rgb(0, 0, 0);" stroke-width="2" stroke-linejoin="round" stroke-dashoffset="" fill-rule="nonzero" marker-start="" marker-mid="" marker-end="" id="svg_1" d="M377.7148953120469,7.124361037413598 C370.2118988802537,24.870153570863557 343.5949745678269,13.584565888939256 333.9593338963453,26.559858236565493 C334.89203200060984,36.00466243509638 319.30038861165264,38.690243850532816 310.96099107028704,39.67654605791431 C295.9288109409528,45.658754316780616 270.6334505989433,32.21827288121292 264.1850353386775,45.91580591010186 C283.5766260374271,48.566850583464685 305.7526427461884,47.426174423682006 323.2040947838942,57.79060098104476 C335.2471249582417,70.7022132961458 356.455397539344,72.2803807606323 365.4081181724605,87.32599691878889 C374.2755754731672,105.83217287204927 365.78660461596326,125.86096529242047 354.61033580456166,141.98757215151684 C345.0493491748634,160.07128696640154 329.4257718211045,176.2237108950669 324.27009862499926,195.7772267632258 C324.6377989563597,216.01928589734484 332.6287697110395,235.71070004437308 329.92987226574456,256.0984290014811 C331.62824287530805,271.863456998846 341.671244942963,285.85797181474254 347.69222956558747,300.62911257766257 C356.5494312186813,317.06693869259857 365.2600655216045,334.35781611942866 378.85306001164605,348.09249712921337 C391.2817025363591,361.8878894416658 431.7174754543647,366.2314209935293 420.66254156355257,386.8172155240841 C413.5556253155509,404.08316183737674 407.5751505009965,424.87659648373534 386.3683985848892,432.75714428175513 C369.55307961380834,442.05937173185583 348.54061917357774,446.64764475115015 334.9775428831375,459.7566232007315 C341.7843930276123,460.32321539635893 384.77626233890794,437.4316037253398 377.2371766367889,462.39489145556655 C360.39213396974975,479.88366348187145 407.209359841961,461.31895225830067 418.6658023369588,459.0032807998953 C427.0549574514092,457.45029313835823 426.26366350920637,481.73486083438905 433.7445395700361,464.91319815536264 C444.281386434708,449.23392137582056 444.7693961218871,431.73855908009836 453.6568696175806,417.4863864904362 C458.038683472408,401.5446957521394 460.4284615528471,429.8277384410896 470.71072080651334,433.21944235528844 C483.22183288379824,447.9890754386481 484.4973878971389,411.3466490322537 490.5700574473258,402.58999952247916 C495.2159895925953,389.3157669587236 498.77149884611947,366.3453052010639 504.7568362522119,359.19548461049243 C505.10814522952535,354.7924230306692 516.4057489615222,365.3062031229327 513.6463608774467,353.30697008753475 C515.2438901795002,316.80272173559916 510.3988746954309,277.3517059134315 485.9319761771509,246.69388140149675 C468.9464665020806,233.2853410122567 462.5502312695986,213.16330560552956 448.15285804556515,197.76717726446594 C430.4368987101054,190.27758476495856 433.911812719087,167.1940314972616 412.44897020914965,164.9332893126991 C407.5712427456107,149.02322875896544 417.0823126628368,129.396955694756 420.6360890655684,112.49846353055263 C425.56578437106646,96.75589529569592 435.62029751905663,80.38439153828485 426.8643084986431,64.07111218942018 C420.2034775576647,47.18040711242646 405.9324786672779,31.372542363873205 385.17632100670517,27.527897315263548 C375.9630538776853,23.430443936423586 367.67686192884577,21.043041125792048 380.061917951201,15.330583163330692 C388.4006082065193,3.3046937316053766 367.17677533250446,26.831116212535445 377.2577409784778,10.695634250052272 L377.7148953120469,7.124376580501652 L377.7148422656002,7.124376580501652 L377.7148953120469,7.124361037413598 zM276.785124000101,44.61408781305695 C299.39481314580337,45.129760851608864 261.1623246609644,45.16162418250072 276.785124000101,44.61408781305695 zM440.28704155610444,384.5777673704118 C459.841608641225,391.8758690227989 441.7056451715712,418.0814691668085 430.61635486122833,426.51827300677235 C407.44018264193903,421.53113325705436 434.8549963389108,396.6450169599453 440.28704155610444,384.5777673704118 L440.28704155610444,384.5777673704118 zM421.4659300970733,434.0408945687923 C411.0602847932842,437.78939007354717 394.15844705705507,440.4733860939823 414.69202180004703,434.76649255712067 L418.1790834468092,434.2337687507666 L421.4659477792254,434.0409101118806 L421.4659300970733,434.0408945687923 z" class="selected" fill-opacity="1"/></g></svg>