<svg xmlns="http://www.w3.org/2000/svg" xmlns:se="http://svg-edit.googlecode.com" xmlns:xlink="http://www.w3.org/1999/xlink" xmlns:dc="http://purl.org/dc/elements/1.1/" xmlns:cc="http://creativecommons.org/ns#" xmlns:rdf="http://www.w3.org/1999/02/22-rdf-syntax-ns#" xmlns:inkscape="http://www.inkscape.org/namespaces/inkscape" width="777" height="480" style="">                                    <title>my vector image</title>                                    <!-- Created with Vector Paint - http://www.vectorpaint.yaks.com/ https://chrome.google.com/webstore/detail/hnbpdiengicdefcjecjbnjnoifekhgdo -->                                    <rect id="backgroundrect" width="100%" height="100%" x="0" y="0" fill="#FFFFFF" stroke="none"/>                                <g class="currentLayer" style=""><title>Layer 1</title><path fill="#000000" stroke="#000000" style="color: rgb(0, 0, 0);" stroke-width="2" stroke-linejoin="round" stroke-dashoffset="" fill-rule="nonzero" marker-start="" marker-mid="" marker-end="" id="svg_3" d="M655.1314391222273,65.11216598090542 C639.1119538626109,39.534000969015565 605.7240984693998,44.15013452954301 580.8740979733584,38.33997053815864 C560.2405479656994,29.78663785891076 528.6394186150343,21.587033797510024 513.9584167001228,46.05206277652336 C494.3666478513662,68.88608216133375 476.9777045273152,93.50795777323717 461.5029299238782,119.2366672023038 C429.0499670463273,154.7971587828991 389.6429976041124,183.31117937569087 350.0310241725137,210.2147635647722 C316.6633971677506,226.60868472242504 280.1337627319929,239.39358171428535 253.1221980263809,266.10509199179063 C201.82880917768554,299.0106842157778 139.34494560006073,305.00978058871755 82.63140221841238,324.29994339996443 C92.68404925476344,327.7954127489732 137.18974107310572,315.09106535301584 107.27333381766552,329.00277552673975 C85.01620661609674,336.333229334836 116.03308800598194,343.1457521145907 125.93743183866908,338.2551177908384 C118.11728246105021,346.61756421010267 115.96613893636707,347.301364192301 125.58356913108938,347.17554974618037 C108.11139441721033,356.9394250445573 164.3832080290979,344.14311127287027 133.39684162285454,357.8080964060914 C119.90621140570912,361.75360908596423 86.73408717757498,398.1508203691199 117.15131944725684,381.7536427474243 C145.43123858665723,369.9843794238282 175.57684344380243,364.0643768158173 204.99522241288543,355.9757607112949 C182.99236758608205,378.5965200125758 151.6368522469951,392.74265728611624 136.51436958610904,421.42490298028014 C136.85807978807668,428.82816749326366 159.92225455811888,406.3823186224809 169.6745023642829,402.7054259148865 C225.13198925286343,369.1883846774845 283.2383797730699,338.12501247444885 345.71212915651864,320.02866938168177 C354.24370099366644,322.0838429954362 355.9121024573744,344.9309265477638 372.5408529839073,333.250622159576 C374.00049594671475,347.8086829789938 410.52514990806526,310.4146680520093 400.98662192149305,339.5792152267412 C416.80524081659706,314.6072122631122 400.95823321728153,366.68985306199977 415.60032996473603,374.57478691840913 C423.0727464494602,384.44509112400794 453.75921167291887,398.0694470793641 428.74485552102703,401.45176388068415 C417.68887275711154,417.99454375647645 444.24458996357635,394.8157606077767 450.0433754865023,410.3136944172637 C471.71399435815283,418.1847787236514 455.92859139627683,426.25452649238696 440.2423381867141,421.48840402913544 C428.22039240896675,419.88298641118257 425.739982058097,435.6820856777155 437.8915734161213,425.87853898501794 C452.40212817184056,435.82697917199533 475.44756869577225,432.25379526636175 493.95093148265255,436.53077767455795 C512.4420537959213,438.06449561653227 534.8563724324887,417.5966421616622 541.8646087012654,422.55792259949135 C524.820754787479,410.326796896122 500.1480591808142,425.2611517136434 481.4414355705773,415.82018355872134 C477.49607613607577,403.12765521167756 525.290336902622,420.3628168102114 525.3870538847059,398.9085803964536 C547.7748036058252,396.8250947011936 506.5590407883082,393.93352703128363 498.5613374976185,398.99495331630055 C471.0149847732827,400.4678136919977 456.88217984666534,374.85940187584333 437.489917309786,360.31932823135026 C438.0772110222603,330.140928865739 460.2121058882226,304.21512673933483 483.37864856327616,287.17293936890735 C513.6035195863377,268.97267676180013 544.6136964914167,245.53065638433026 553.1737719668462,209.2060259380105 C562.0480387554297,176.85575661185305 566.9895888522777,143.52031113407523 571.0239455335236,110.34604147079787 C576.4817409597024,88.94137993319045 592.1695457786233,69.17464318696314 616.2330335853475,70.77144075303342 C629.2104067578796,68.96285809008552 642.2350178147195,67.4610343400715 655.1314199665998,65.1121276695638 L655.1314391222273,65.11216598090542 z" class="selected" fill-opacity="1"/></g></svg>