<svg xmlns="http://www.w3.org/2000/svg" xmlns:se="http://svg-edit.googlecode.com" xmlns:xlink="http://www.w3.org/1999/xlink" xmlns:dc="http://purl.org/dc/elements/1.1/" xmlns:cc="http://creativecommons.org/ns#" xmlns:rdf="http://www.w3.org/1999/02/22-rdf-syntax-ns#" xmlns:inkscape="http://www.inkscape.org/namespaces/inkscape" width="420.38623785972595" height="339.2592570781708" style="">                                    <title>my vector image</title>                                    <!-- Created with Vector Paint - http://www.vectorpaint.yaks.com/ https://chrome.google.com/webstore/detail/hnbpdiengicdefcjecjbnjnoifekhgdo -->                                    <rect id="backgroundrect" width="100%" height="100%" x="0" y="0" fill="#FFFFFF" stroke="none"/>                                <g class="currentLayer" style=""><title>Layer 1</title><path fill="#6d6d6d" stroke="#222222" style="color: rgb(0, 0, 0);" stroke-width="2" stroke-linejoin="round" stroke-dashoffset="" fill-rule="nonzero" marker-start="" marker-mid="" marker-end="" id="svg_31" d="M196.01364337514482,272.59113817668384 C195.3501378693513,258.2304022573421 193.85783659325278,233.5164490574216 177.36756721251209,245.4372980631776 C169.73653716471753,249.0108975621137 146.8248789951855,258.102092743639 157.90289027805736,239.3180418583735 C151.83086439394535,220.60149212839153 127.1239621090043,248.46026750869137 125.4233265077782,235.45400532066438 C138.71223239615026,217.5013616469779 119.01789336050203,197.77205856970238 105.09845160006618,210.4981167862067 C96.53329979237344,213.46799903442047 79.071598440464,232.26551980556894 75.6536615637477,226.30377191590762 C83.60861390896717,213.61753331198605 101.52714765023146,187.6445756720571 79.91535848581074,179.8573800812564 C56.43042255659357,173.15465360062962 35.79527673576023,193.50245877208073 15.373247913455902,204.60901187309807 C9.244834711842485,210.62925851621517 1.444455155724535,209.57992237497464 9.067581065404442,199.5582767033232 C35.51549704017992,147.9021747003072 77.02502952668826,109.01405783018174 123.0823083539544,89.2522854159723 C134.24682306023004,84.68682016499562 151.43687660102756,74.57830300154238 151.77374025001043,97.63996143886553 C158.67730825750138,118.86484330982131 163.58904685687412,145.40153000358978 181.36706109866836,156.32275837932178 C201.8422887895389,170.6474003991955 187.16512151761066,114.97390071720807 208.37718903976787,136.00428687675185 C217.30456472263288,143.29061850064275 236.40697759138237,129.40089026798543 239.02564534254773,137.2057029185466 C233.82422677968458,146.57189281660817 231.38333515188395,163.19943014471752 245.12632707653748,154.65232394562432 C268.9915458269927,142.8382730963973 286.5206868929205,116.3757466379206 298.2719565842092,88.52819897226094 C310.547190251453,86.20713027606672 322.7524789948008,97.90421733523884 333.9450466929626,104.11808305139347 C371.114979608021,130.601901707452 394.050939653046,180.6460511717959 403.79254873650217,231.66505623191327 C393.6761897284882,224.50769160050888 383.8689495049881,210.03906172666777 371.61085040155655,204.34979664741113 C358.5417733306883,196.13267736478437 343.80182844654536,194.68379642328125 329.4360574226569,195.24848640764907 C322.70341975111177,205.34643333525128 318.72724977081754,217.88190699618832 324.57931286898184,230.4271079714586 C329.6739183925387,254.45723265943792 308.32658293386186,222.15676662408907 300.6190836990162,219.96233845698427 C286.228314163733,207.01582254626453 272.44119303407865,226.57443401583163 275.5986684646412,244.95027486761978 C272.34445442165844,248.49140502962183 262.3078602243828,239.0130728526034 256.41086411056233,240.11315286932248 C244.28637173496105,235.5174435942228 235.74666053452364,242.13759748279503 243.05071380440052,258.0055276543601 C232.35581207690626,256.363229940985 216.7329615684804,235.61262629220522 207.27453497904645,255.15033330809428 C203.15112028346175,260.0310849242399 201.02655494238869,269.7549095646073 196.0136701688336,272.59117189354595 L196.01364337514482,272.59113817668384 z" class="" fill-opacity="1"/></g></svg>