<svg xmlns="http://www.w3.org/2000/svg" xmlns:se="http://svg-edit.googlecode.com" xmlns:xlink="http://www.w3.org/1999/xlink" xmlns:dc="http://purl.org/dc/elements/1.1/" xmlns:cc="http://creativecommons.org/ns#" xmlns:rdf="http://www.w3.org/1999/02/22-rdf-syntax-ns#" xmlns:inkscape="http://www.inkscape.org/namespaces/inkscape" width="420.38623785972595" height="339.2592570781708" style="">                                    <title>my vector image</title>                                    <!-- Created with Vector Paint - http://www.vectorpaint.yaks.com/ https://chrome.google.com/webstore/detail/hnbpdiengicdefcjecjbnjnoifekhgdo -->                                    <rect id="backgroundrect" width="100%" height="100%" x="0" y="0" fill="#FFFFFF" stroke="none"/>                                <g class="currentLayer" style=""><title>Layer 1</title><path fill="#000000" stroke="#222222" style="color: rgb(28, 19, 19);" stroke-width="2" stroke-linejoin="round" stroke-dashoffset="" fill-rule="nonzero" marker-start="" marker-mid="" marker-end="" id="svg_34" d="M327.4379210172426,18.66834026185977 C313.29698892929565,21.25774344722393 302.37906946260716,38.323145364576575 303.39096910485006,52.30124435965162 C305.06252359582766,68.21409908714907 324.17934661289115,58.23680501098934 329.81989978654155,53.73786853128219 C326.4479519139881,67.05854977805627 299.52024056464353,69.79641297576781 301.0324161385599,53.59428841159615 C280.5221809209796,68.73097360858598 265.1570216996822,92.45855335356784 239.75231209942032,100.12775093078113 C216.82774709017738,105.44888557224652 192.79956132081918,103.69111578052707 169.68275635961245,100.58000454584334 C155.6290711886662,99.26319854626462 142.21401444060217,92.16220129737803 128.04736149324208,93.64891101814615 C112.87293536869107,97.81151741366915 100.69895935001132,108.90833536806693 85.56090639213353,113.2833040282822 C69.59967002101573,120.27351264521809 75.6960468974676,139.57271150817704 74.3128001740612,153.24515071831001 C74.73969225672022,173.5990207292541 70.99872713299195,195.16223478049955 56.81228801752697,210.6878856734836 C48.564423263833206,222.91651417172505 47.812386599168015,239.00844125483792 41.186825353282934,251.77053127308494 C63.206373119863414,251.54135018594246 49.932636208661336,222.10303258783375 62.04782169153448,210.13779079013506 C78.95131781153722,202.31154412584328 78.46098712428841,180.81369281738716 80.81920394595339,164.98395854183738 C82.53864165921594,158.58630335175764 81.68296812927832,135.91106492477377 88.48982724002384,138.96944781809674 C96.85778835442338,157.77355201308734 101.62297455958489,178.78969648260434 99.72917051545622,199.3865295103205 C88.65343694288643,209.77692214831794 71.045880110054,217.17741266695668 73.5925117896746,236.3291251778615 C74.43238652223444,253.67564832252833 63.878673961221764,266.165240961773 55.63694094913702,279.77992125236 C60.931207202984,287.76925601578324 56.80310779190406,303.76757261641103 71.99875739261009,299.08301475649256 C82.16556749015027,301.04061673222577 87.19278422616053,296.32781113260666 77.16366592176759,289.3192188820387 C62.004366305347205,274.7548952520124 83.11634676659921,255.50978090010767 91.31170341161621,242.75971095000682 C99.78126134114873,228.52420631047613 117.00004952828282,227.84415096035218 129.59339494473946,219.41528971284092 C146.9879635884019,209.03161996734644 159.70656344688038,192.99591017497954 171.24054328179292,176.77598153687478 C181.34148062401115,187.51242927079667 155.2936568088039,197.34425386265102 151.4534942470936,208.3079005895461 C143.07590085050634,217.29174820426076 128.0891941122737,233.6422052776444 147.97742267912224,239.2024546594797 C163.35149552858115,244.4624921175377 177.8350285366499,255.18836868255858 177.37240080298344,272.008489344347 C177.6279982211797,283.4213527934842 205.63329650898368,293.759677788176 199.90117290298565,275.2232026707206 C190.20989153799525,257.9189178368764 167.05098736029376,251.12322104592192 160.8871265525564,231.51461844236684 C156.6314196870782,216.46480924417045 174.34818874948147,209.1746205273371 182.83534211145854,221.38079688285933 C197.8623862047002,219.7364469241231 213.64453862900908,209.74291358521307 230.13153996734036,208.20775267365912 C247.12769609192372,201.88162674155888 251.07598131097186,225.04925908831706 264.6901052242495,231.11969487267004 C276.03842890537214,242.33961130701164 286.45806612575086,256.54592932013213 285.024362934999,273.40239996620323 C286.40672872766453,287.669919483475 296.067281837445,302.57596310288335 312.7532692026298,301.10768338052617 C332.2267764404861,297.8509867496002 306.840392517888,277.1102374575712 297.921548318948,272.3426171016769 C284.9985725284216,256.9298644379444 287.133902281268,235.01766271870258 279.0905293715637,217.2698524388535 C273.2924170983019,212.02967069606456 279.3534756067367,186.60497787740022 279.56222141891135,204.79385627013383 C278.5185039492262,225.63762809415095 308.2306519136441,213.67558546598556 306.1980780953247,197.73305728193196 C311.25376280372006,185.03311924574282 292.7695291974811,192.8715134813121 295.2140656406286,180.06515669329963 C293.2077342854543,164.12799523205186 294.35220241311424,144.42112248603027 280.5244296126112,133.499945893837 C272.5569906145931,125.66534197869615 274.9802456256135,124.90126206349535 283.65638181405154,131.0981114092673 C300.5730223480112,139.85881694889773 297.2866290781396,159.83619338855743 298.47312687512556,175.5815321808239 C303.37143794301335,196.2164654631138 323.1710981967499,169.50389826501691 322.5910516681863,158.31346982813042 C325.9836898219732,134.01443262931454 337.56889114303345,109.08598200682403 360.1702357084697,97.24944882695081 C354.0962182451789,94.2740588824409 324.2982143070363,105.05647729163974 326.79812188377076,91.49105957541693 C339.0838717858867,101.92596239825417 355.99241007526575,90.56289471840176 370.51458812402166,93.63850212596282 C389.781053455216,94.42940406400302 394.5658867341527,67.21849666362696 373.4494204808371,65.88783918725463 C359.79113411854195,57.79646714332898 348.030546441546,43.49484633340043 330.37852578865153,44.607496633614744 C304.78796298430007,53.18418037780292 320.59640423653053,29.409528794115083 327.4379094260475,18.668351853053075 L327.4379210172426,18.66834026185977 zM352.4841961264184,29.6821073114736 C350.5578208272388,36.40035174432914 337.862159941626,50.111656227838566 353.1445812203783,44.563658738026334 C355.33787853426253,40.0313512108835 354.4347970209944,34.16441042783633 352.4841961264184,29.6821073114736 zM348.427741885259,60.223477701194966 C355.27796365264015,71.60505651781085 334.74388534906706,61.41728954157669 348.427741885259,60.223477701194966 zM376.70505072191855,71.99193579889229 C374.3285198137841,76.84304752494052 383.09722327725194,77.74997731460452 376.32772258466747,77.74644200044564 C372.7469013968037,82.50023406193388 371.1900417701399,71.60365398334056 376.70505072191855,71.99193579889229 z" class="" fill-opacity="1"/></g></svg>