<svg xmlns="http://www.w3.org/2000/svg" xmlns:se="http://svg-edit.googlecode.com" xmlns:xlink="http://www.w3.org/1999/xlink" xmlns:dc="http://purl.org/dc/elements/1.1/" xmlns:cc="http://creativecommons.org/ns#" xmlns:rdf="http://www.w3.org/1999/02/22-rdf-syntax-ns#" xmlns:inkscape="http://www.inkscape.org/namespaces/inkscape" width="420.38623785972595" height="339.2592570781708" style="">                                    <title>my vector image</title>                                    <!-- Created with Vector Paint - http://www.vectorpaint.yaks.com/ https://chrome.google.com/webstore/detail/hnbpdiengicdefcjecjbnjnoifekhgdo -->                                    <rect id="backgroundrect" width="100%" height="100%" x="0" y="0" fill="#FFFFFF" stroke="none"/>                                <g class="currentLayer" style=""><title>Layer 1</title><path fill="#6767e7" stroke="#222222" style="color: rgb(28, 19, 19);" stroke-width="2" stroke-linejoin="round" stroke-dashoffset="" fill-rule="nonzero" marker-start="" marker-mid="" marker-end="" id="svg_43" d="M174.14884075641606,290.57469686334616 C175.97368058152057,271.20810385137077 180.25147028415222,251.1987650478498 189.79944996889162,234.5802051350343 C198.92358836520677,223.66659560434212 213.6501540947332,223.99290578472298 225.94928835990714,220.2592133481739 C208.7165375291507,215.6384129329646 192.63054847873025,207.45677969883442 176.84723380095258,198.80008616226826 C151.01295584617017,187.58756746983656 124.71639501429206,203.74314004676447 101.42976806397776,215.0771900302268 C84.13994392355009,223.3381113183115 67.03710501450637,233.08378886674888 48.41955819975055,237.17448402539782 C36.20668370160463,228.68966629328955 46.406457829868614,204.61802930877911 54.99452736141284,194.45426760084445 C65.86809205236652,180.41786502847273 81.96351842168814,173.1662996147364 93.75168927667515,160.34882941350136 C98.93751424303296,142.24454157300275 75.04319440001335,137.79039425036473 64.3083109284477,130.67689061807906 C47.66149978808108,123.14025015619015 33.51719355893818,110.7960548186733 20.861858197203336,97.01360964828028 C50.25173411319538,95.30111885795904 76.24970157520343,113.54988148427154 102.76870135010039,124.62980402397142 C117.11241800659029,129.82171405697895 130.64083289995284,137.1240247969135 144.0524047971305,144.347314691406 C150.2014192939255,144.31626992028038 171.06705207597494,148.88077435967966 168.9875503900678,141.86975733880266 C153.3469857886007,141.17629051274236 154.9147102929207,120.9444641828257 165.44005370523345,112.92321678700131 C180.91022429492463,100.75014421176252 199.77001992035778,93.56357119642067 212.64902095515023,77.4394077658664 C218.2991814458198,72.90402905461724 221.2725199066219,61.81023596381148 226.04779113528573,58.30978012347882 C246.63841777185263,74.40122265676385 258.6854043654548,99.78461053390127 270.04579867934945,123.85579812227334 C288.54466847585854,128.03504861201836 307.22720768900336,131.42489227291566 326.08230287375886,132.447997239954 C344.4952894243095,140.8663650726786 360.2170489768676,155.53806803569233 374.63371355799364,170.43785775807822 C385.55830292949446,178.6791149286159 388.4697340356683,201.10420089684382 373.61976655553184,205.60299633320054 C336.98209043669203,225.3358350527306 296.07262466098825,231.36807942840397 255.72721176912842,233.2644339688394 C250.04305506781685,232.86366977946136 245.09370963738286,233.48757737068576 245.05562027810848,240.9601485181472 C241.50197779742737,251.60266286436377 240.04929870473777,263.9700446134924 233.35936915235524,272.63537384343647 C225.9761792532214,270.74724203776265 232.9707265128794,248.9998697390423 225.38812618638832,259.3327015620272 C210.47325132873866,275.5221610370175 192.5340862047559,287.6636908616214 174.14881646473242,298.52144166680324 C174.14881646473242,295.8725429267732 174.1487921730489,293.223449853279 174.14884075641606,290.5747090091849 L174.14884075641606,290.57469686334616 z" class="" fill-opacity="1"/></g></svg>