<svg xmlns="http://www.w3.org/2000/svg" xmlns:se="http://svg-edit.googlecode.com" xmlns:xlink="http://www.w3.org/1999/xlink" xmlns:dc="http://purl.org/dc/elements/1.1/" xmlns:cc="http://creativecommons.org/ns#" xmlns:rdf="http://www.w3.org/1999/02/22-rdf-syntax-ns#" xmlns:inkscape="http://www.inkscape.org/namespaces/inkscape" width="420.38623785972595" height="339.2592570781708" style="">                                    <title>my vector image</title>                                    <!-- Created with Vector Paint - http://www.vectorpaint.yaks.com/ https://chrome.google.com/webstore/detail/hnbpdiengicdefcjecjbnjnoifekhgdo -->                                    <rect id="backgroundrect" width="100%" height="100%" x="0" y="0" fill="#FFFFFF" stroke="none"/>                                <g class="currentLayer" style=""><title>Layer 1</title><path fill="#ebeb1a" stroke="#222222" style="color: rgb(28, 19, 19);" stroke-width="2" stroke-linejoin="round" stroke-dashoffset="" fill-rule="nonzero" marker-start="" marker-mid="" marker-end="" id="svg_46" d="M136.86719301258876,304.64114464984885 C135.96925297292987,293.50577514078094 138.5851902457078,281.9473679692639 134.21440148547583,271.0703880498234 C127.10838279632426,247.1477454767927 111.40042675591417,226.11967244426583 104.32087412938543,202.25086738937424 C101.25942639053125,186.236230963715 96.0754804834041,169.0918358063702 102.18957935483456,153.22891463142258 C111.03107412439186,133.74018099610828 125.61966915524698,115.95751246916875 145.08473868053562,104.1770839093394 C156.00471046477912,97.62859660824184 176.91104151522745,105.9050499942881 176.95918935407968,88.44104162959115 C180.4120431882801,68.52581077808783 191.6724045632281,50.025508815426086 206.01313162247158,34.799002572111824 C223.0391395165209,18.124801749149547 251.74043603411639,14.995430485437996 273.94760694355966,24.580300439079092 C286.5261154766476,28.74077120491782 299.610948284179,35.94541100183215 302.401302342144,48.73236956090933 C300.4563278861486,61.34304336639745 315.1372158052677,70.08807091014467 314.2332048682346,81.64822215420853 C300.90573630671173,81.61601876001677 288.09432261017434,83.79747229860864 276.9608877826962,91.17488011266556 C269.1458607160331,94.87908053314541 251.7517963318005,96.97117656243185 264.67743248452643,106.29879105012398 C276.7920272504798,126.52845054359278 276.48593775321467,152.06746714990126 264.70071537648346,172.3948995409784 C256.8467468867201,188.22996320742567 246.80197548587483,203.98747759345252 230.03021143521437,213.3806425236593 C217.2945457638412,222.10063357242402 203.55543795937558,229.5181455246149 189.35241638778507,236.0550056753971 C178.26972168182863,246.70757206330555 194.42989762589377,262.0408670109482 198.6084000051706,273.06508286909303 C201.8148916789969,276.43928189054714 202.91997607286567,283.404497695479 209.24313491912,281.72761482830697 C223.81076295758265,281.9698598338082 240.46503560735368,279.8869988116172 252.1149541701359,289.17307959351166 C243.5916906925167,297.0447461309217 227.43660400932117,287.8290477302389 215.8747182231496,293.74818216394897 C207.50675344586062,299.23593026006614 197.70651435875953,300.8371508761303 185.98368784525036,300.9723975073768 C173.36906843299568,305.0724261524803 160.0304683046254,297.5278732874183 148.73326220581,302.56362068026056 C144.81254899773452,302.9566374218131 140.74368492766448,305.80583248473556 136.86720254303347,304.64116371075045 L136.86719301258876,304.64114464984885 zM192.4144168928167,289.1899961441748 C187.7994579759751,279.7770174061771 172.8401951113454,290.6852953269584 186.59805884352573,291.4093904085092 C188.7975249346515,290.9605824063457 198.80894928721068,294.3049415854735 192.4144168928167,289.1899961441748 zM175.40139900357002,285.0686192886572 C189.53452424698747,276.17032303067487 182.7822854322792,260.7846296630043 173.6950193903238,251.10867718841166 C170.60469438467769,248.273101140081 169.1827606142863,242.58525169313188 164.98953368807713,241.63522773832392 C158.57209008931417,241.63522773832392 152.15466555145056,241.63522773832392 145.737221952681,241.63522773832392 C141.3047425826395,249.72876317683082 143.36981978308037,258.6622267992908 146.58750020649555,266.82612555810596 C149.93331754463503,277.19970705160733 152.46129828445277,294.0894485561509 169.0430442014873,288.7498322611388 C171.5977769174537,288.31152681606153 173.71224091541194,286.77266394140145 175.40139900357002,285.0686192886572 z" class="" fill-opacity="1"/></g></svg>