<svg xmlns="http://www.w3.org/2000/svg" xmlns:se="http://svg-edit.googlecode.com" xmlns:xlink="http://www.w3.org/1999/xlink" xmlns:dc="http://purl.org/dc/elements/1.1/" xmlns:cc="http://creativecommons.org/ns#" xmlns:rdf="http://www.w3.org/1999/02/22-rdf-syntax-ns#" xmlns:inkscape="http://www.inkscape.org/namespaces/inkscape" width="420.38623785972595" height="339.2592570781708" style="">                                    <title>my vector image</title>                                    <!-- Created with Vector Paint - http://www.vectorpaint.yaks.com/ https://chrome.google.com/webstore/detail/hnbpdiengicdefcjecjbnjnoifekhgdo -->                                    <rect id="backgroundrect" width="100%" height="100%" x="0" y="0" fill="#FFFFFF" stroke="none"/>                                <g class="currentLayer" style=""><title>Layer 1</title><path fill="#b6b6b6" stroke="#222222" style="color: rgb(28, 19, 19);" stroke-width="2" stroke-linejoin="round" stroke-dashoffset="" fill-rule="nonzero" marker-start="" marker-mid="" marker-end="" id="svg_49" d="M176.6078407614375,291.57778857444725 C163.01833748168622,280.9773178343246 147.4819852094918,287.56083785089805 132.52313873594906,286.7647208467848 C119.42182910741394,275.5378250853428 103.49427668088964,289.1405293128015 91.14753892927699,278.3288873028355 C75.18067994026293,264.08714966759584 102.85948996202112,255.17015639385482 96.95564866519432,238.26289173791227 C96.29275918068203,213.92116717289616 85.86898142471144,191.87320328837143 74.91117430799298,171.41651873006856 C67.15099226200465,155.15144780854047 69.90163960801473,136.46014584850988 67.40426830021458,119.05510780124317 C58.43888252491463,106.55848497507513 49.48394338486892,91.08702913240853 60.151669826137095,75.64722044949087 C72.2015124480023,62.62661985700377 66.53747190776981,45.497254468280694 61.802260143502906,30.439976988167786 C73.98617523340234,34.02384225615097 87.97121314324855,50.34642453837663 104.00052150332331,47.078734587271605 C114.90166220778494,40.05840914732522 121.51926546922243,46.9986290858239 123.33796760605759,59.847880718706605 C129.0526831059748,76.34952623005998 132.38748610459308,98.91593730929476 150.42199976624903,104.23828947910442 C169.36416362608747,109.646793469719 190.57312662983477,110.84799192395977 205.55401857630633,126.71611265242551 C232.94833336100396,152.38054364668713 245.65050909855898,192.83967067665847 244.57594317674256,231.83652115780782 C247.05720559740553,250.0733286440099 269.9412843699843,240.39460886499688 281.2651077881797,243.0841785094899 C300.2549399080564,242.24138084740986 318.48473541954115,248.20620108554323 336.86462449935783,252.3007992787149 C353.26937527402276,256.66472753045105 367.16515590321836,242.86639030575947 382.5794954260179,241.21205807387733 C385.1839227984931,257.15774945847136 364.9465407670977,263.8016119616825 353.8936824375669,268.7155687277431 C340.7727743945672,274.29729812189754 326.5701458014077,274.42932954565384 313.09189040845644,270.335839661475 C283.9538544309464,263.0712473088949 253.0709121381346,264.9780874440388 225.382368749283,277.7537407757978 C210.43843506703837,283.25693385846506 195.9270930393253,293.67710138019174 179.6707678828158,292.37383973842236 L176.6078407614375,291.5777337076655 L176.6078407614375,291.577766627735 L176.6078407614375,291.57778857444725 z" class="" fill-opacity="1"/></g></svg>