<svg xmlns="http://www.w3.org/2000/svg" xmlns:se="http://svg-edit.googlecode.com" xmlns:xlink="http://www.w3.org/1999/xlink" xmlns:dc="http://purl.org/dc/elements/1.1/" xmlns:cc="http://creativecommons.org/ns#" xmlns:rdf="http://www.w3.org/1999/02/22-rdf-syntax-ns#" xmlns:inkscape="http://www.inkscape.org/namespaces/inkscape" width="777" height="480">                                    <title>my vector image</title>                                    <!-- Created with Vector Paint - http://www.vectorpaint.yaks.com/ https://chrome.google.com/webstore/detail/hnbpdiengicdefcjecjbnjnoifekhgdo -->                                    <rect id="backgroundrect" width="100%" height="100%" x="0" y="0" fill="#FFFFFF" stroke="none"/>                                <g class="currentLayer" style=""><title>Layer 1</title><path fill="#8ae9e9" stroke="#222222" style="color: rgb(0, 0, 0);" stroke-width="2" stroke-linejoin="round" stroke-dashoffset="" fill-rule="nonzero" marker-start="" marker-mid="" marker-end="" id="svg_4" d="M427.8358863732467,439.76462978177545 C409.2227939312314,429.86669699948385 443.39110141074485,429.7813502151919 451.2301906514679,429.1010737630896 C471.58912507543175,428.71947711820366 474.3482276468914,404.279671338634 472.25497117416836,388.72304448858034 C469.27686117929903,382.34682383731354 472.1904622002487,368.5049519426273 461.70085777912203,370.5727143385437 C440.7422152448457,369.60043703865153 420.01003287528033,364.38350455102994 401.77393511221237,353.9798170692707 C400.6547614304665,371.46689396864707 391.865087932812,387.4666127606943 386.0196002032304,404.0056982512276 C378.33179210838773,412.3777603085606 405.5629413712296,442.26675531702335 386.608461792056,428.9142665261563 C374.3306745873155,417.4996941010259 386.69705303020146,440.78785450993195 371.4529526105578,434.2310440270492 C350.7668170506541,433.80429653046843 329.3350815574968,437.499715906893 309.1266409224124,432.54024915982785 C302.3354424042827,429.69174084297856 281.072825765683,433.24456715082425 296.56244581962335,423.7259096677579 C305.35966708438923,422.12153401937485 313.06527216256944,429.8076587992464 319.7137418608977,420.9595987071785 C335.45382289308526,427.46677854852896 360.50516071316,427.51148142122815 366.22030013308694,407.004170927238 C375.73096187002454,391.48321949456954 381.55816391192405,374.0826568398676 381.91330264643625,355.8496677794606 C370.7758663118263,347.2721734194908 361.95385687652316,336.18161197692984 356.88846346208385,322.9836352106877 C345.17502117804366,303.6760803153596 323.79869932787005,293.0884227969079 306.27351706447723,279.7133314299495 C283.0203397418053,264.57062358733833 256.2462104948561,247.13419546355362 251.69035923856603,217.26644551910186 C246.15128913503952,195.10951349919753 251.72044170619733,170.8464286418436 267.4291370591311,154.04175948852819 C278.02339208629536,138.8790826432634 297.7196841400283,124.78666831960689 293.21226891466097,103.97007584909016 C281.7592924728589,83.5947291041252 256.9925706348745,106.60677155654446 245.745488049831,116.50579034850062 C232.19751751984325,126.09248633686587 217.61994195493637,149.31708803032745 199.12461368561807,138.89922812248412 C196.79349394673577,123.12913249829543 217.7271446836718,113.23284230560486 222.87836001164257,98.52155180110506 C233.54636866994343,81.96202217869116 239.86144697726252,62.71544672587409 248.61021863600052,45.67370166340383 C264.43489982079484,30.94286298500289 290.6000763001895,30.85262915723054 306.2387104548277,46.060945558539316 C326.1952239986392,61.599761850141974 338.64016166545343,86.16524609782317 336.68602303037954,111.70120215432047 C338.610024897343,129.33472745657528 331.0618369196158,152.31123024281527 347.89164719661153,164.55304337752298 C372.2189695254649,178.07562843166258 400.9016114265616,181.31964789218765 425.6288160879749,194.2803586976069 C456.55256110213986,208.5585078236372 479.75164156853856,234.32419564895542 505.77710290493906,255.5283306672717 C521.7908583718606,270.07727630245523 538.2537874348827,284.19652863987227 553.4784347064741,299.5744118747305 C543.300990187476,296.52981093833586 533.8888023766277,291.34953127680166 524.1457617223473,287.14224839657174 C536.7545375217389,303.5415780187582 542.4199376991626,323.716026551424 545.4054461348534,343.87073685849566 C550.3139926038986,365.23226182703013 564.0483631171935,386.1154131146942 557.1578218652587,408.7287406949321 C551.1490254327848,427.5331880393443 532.005322245194,397.12070922368594 522.6445298415812,391.7978772189297 C511.9453391308628,381.7128113968056 501.3612925945338,369.22698546622615 485.8505360775663,367.48641063114025 C483.05142762519927,385.6196089787551 480.17485953372346,404.4827551453832 483.3593113642967,422.6467282917851 C485.22560539285115,438.7332192558011 517.3262998027719,429.079787973713 512.675680628372,440.989092100244 C485.7841537369818,438.05466684403973 458.7845417340201,440.52767374522386 431.8277592370844,440.1763224694186 L427.8359270986123,439.76461620665805 L427.8359270986123,439.76461620665805 L427.8358863732467,439.76462978177545 z" class="selected"/></g></svg>