<svg xmlns="http://www.w3.org/2000/svg" xmlns:se="http://svg-edit.googlecode.com" xmlns:xlink="http://www.w3.org/1999/xlink" xmlns:dc="http://purl.org/dc/elements/1.1/" xmlns:cc="http://creativecommons.org/ns#" xmlns:rdf="http://www.w3.org/1999/02/22-rdf-syntax-ns#" xmlns:inkscape="http://www.inkscape.org/namespaces/inkscape" width="777" height="480" style="">                                    <title>my vector image</title>                                    <!-- Created with Vector Paint - http://www.vectorpaint.yaks.com/ https://chrome.google.com/webstore/detail/hnbpdiengicdefcjecjbnjnoifekhgdo -->                                    <rect id="backgroundrect" width="100%" height="100%" x="0" y="0" fill="#FFFFFF" stroke="none"/>                                <g class="currentLayer" style=""><title>Layer 1</title><path fill="#e9e98a" stroke="#222222" style="color: rgb(0, 0, 0);" stroke-width="2" stroke-linejoin="round" stroke-dashoffset="" fill-rule="nonzero" marker-start="" marker-mid="" marker-end="" id="svg_1" d="M299.9526097110657,453.0901134953218 C282.23988852145044,445.9416425087149 305.3536303755288,431.64941846937705 314.1043322333139,425.3272090350865 C319.9986756712011,420.4582864347774 280.32342619541885,426.0102115636877 297.0739707008095,409.10822827527045 C315.45176088108366,395.3002304182333 308.50959973985306,371.94015229802704 290.13976691327724,361.08151591180035 C264.8590387143466,345.8049053538136 232.42224576019612,332.73026432596635 223.08261683991782,304.2046717306289 C213.63886263098976,286.4373481545409 236.0348843374714,267.72473163142485 221.6298858782522,251.68037377024473 C210.03515949879005,230.8484702500401 223.58109531542095,209.12515911567436 232.00087072643515,189.82763748160733 C235.87291903415786,163.1334340627929 212.15345678572135,142.02339498772665 199.10921554171887,120.09262828907619 C182.95747847964608,99.13509123398629 173.64687732253427,74.71473907375807 172.30896434355373,49.265832818907064 C168.7963894889831,38.403160967224686 172.68363965781717,21.533728455326422 186.7100172815579,36.178803505561056 C216.0833451081018,57.22798420082731 248.33032202100503,77.20111990100003 268.88819502407716,106.01237004012084 C272.77958964795977,116.41922716667219 288.36146414076535,146.581275186177 289.23156761160834,119.26782069122049 C289.6390835876936,81.72738400794616 302.4507048586903,40.783922387889554 335.27948037141005,15.627068109220094 C357.6090415967286,-2.5820795893262574 369.6512862323968,29.301406009263378 370.6931690761243,45.503384403590196 C376.5051373254403,77.38207788695183 366.8711028962919,108.99499442841353 356.13542258162,139.1087503888604 C352.1942447636757,153.1035813947965 341.93041894524583,191.4545235115897 371.20298678063915,177.31388164347874 C438.63646995027307,154.014246487505 520.3371401598375,178.48513098356236 564.2604063275757,228.53767667899152 C584.4515447922438,252.7725012820862 593.2939717291858,283.9086097762775 593.0943416183645,313.80452478339845 C582.6974787928747,331.368235389144 621.3273806604913,313.4755008222237 607.3297821326154,333.73873011092786 C599.0895445143209,356.185561627433 575.8076372521646,368.36547171661744 559.4993392561674,385.3082102388995 C542.9043112820342,398.8846584290716 555.2173214549817,427.9116872799839 527.773950300112,432.1887910675002 C487.7307395272486,443.23630800789107 445.6820766895377,448.0755283955392 403.99568895659405,450.89228328452805 C380.66810979978857,455.16938707204565 369.3471163874212,431.2971609092786 391.7057716871814,421.37286830278043 C402.42512284896935,406.5840891407224 433.092880032116,405.5477163317728 442.20487890327195,403.20490608992947 C420.4301773199372,405.1116041732827 393.57654554075265,397.15779077514 375.2281478356873,409.2265326927505 C364.11613442471315,425.3704419260514 355.21638138554005,446.6193336526267 331.9143652274897,451.2272862625411 C321.44248776559823,453.83014664604275 310.6755251042049,455.91746148113765 299.9526262888915,453.0900986590512 L299.9526097110657,453.0901134953218 z" class="" opacity="1" fill-opacity="1"/></g></svg>