<svg xmlns="http://www.w3.org/2000/svg" xmlns:se="http://svg-edit.googlecode.com" xmlns:xlink="http://www.w3.org/1999/xlink" xmlns:dc="http://purl.org/dc/elements/1.1/" xmlns:cc="http://creativecommons.org/ns#" xmlns:rdf="http://www.w3.org/1999/02/22-rdf-syntax-ns#" xmlns:inkscape="http://www.inkscape.org/namespaces/inkscape" width="777" height="480" style="">                                    <title>my vector image</title>                                    <!-- Created with Vector Paint - http://www.vectorpaint.yaks.com/ https://chrome.google.com/webstore/detail/hnbpdiengicdefcjecjbnjnoifekhgdo -->                                    <rect id="backgroundrect" width="100%" height="100%" x="0" y="0" fill="#FFFFFF" stroke="none"/>                                <g class="currentLayer" style=""><title>Layer 1</title><path fill="#d5d50b" stroke="#000000" style="color: rgb(0, 0, 0);" stroke-width="2" stroke-linejoin="round" stroke-dashoffset="" fill-rule="nonzero" marker-start="" marker-mid="" marker-end="" id="svg_1" d="M322.0420300141576,449.4867052192983 C340.0424106446434,437.64465531145356 299.1978665860866,427.6265708631609 293.13281800738264,416.4433832867525 C275.2808808108325,394.48646201612564 269.71929338319785,365.30132270519215 264.74571322153713,338.19566907040144 C273.2936759156217,323.6307232221304 269.83137698090445,308.5834657001846 272.92854097910055,293.44580926916893 C288.070789868052,270.9699575154545 296.447519487266,244.6024983333936 311.6651641049895,222.2073771562173 C328.61119580935195,225.78395232833518 346.9352929304426,239.53297723637334 363.91148637928796,244.75693268052703 C379.236484017738,272.307536789772 351.20938649920095,295.2492813167421 354.50464772476954,321.9222770713183 C360.93260407054134,346.7900224956907 343.7123542850961,367.5142486349579 340.251488335374,390.69127893976196 C340.37210078355554,412.6164846267614 360.3106540514724,434.8115576452062 382.10020958023006,419.73798844687934 C380.99460122687367,403.7491907214427 349.9128803732274,398.7924956119468 363.82714744293776,376.3061122817371 C368.405569042625,353.0572946079664 383.41265118997933,334.44407981479566 394.7602176840976,314.913288470876 C388.34892194704224,292.01268615174035 396.8815534281348,262.9843292115227 411.32706084002575,245.8172034602925 C425.99412845052586,259.9861447674991 436.1244000858103,284.9000219498923 438.36864450700176,304.74021719933154 C438.6528934830745,327.4837954394421 468.9366661360347,342.7040297890715 468.3607270208306,369.49028315313586 C470.62347939284285,393.17198315057146 481.7136610633896,415.7228853354809 497.09395811087285,428.5601174274127 C505.13631880883077,445.27583563927203 555.0411263308481,436.5557593614338 528.4618098124522,416.69722881000405 C506.51312388935645,396.88956059357804 481.25987097064035,375.88386512382937 477.92700683752435,344.31824422758586 C468.82171656833265,325.5806187127436 489.75073870822416,299.0297029211294 464.0477874731957,291.2028251841945 C465.640679785531,265.81172946754714 458.91505965231534,236.98977416177507 473.38482421990375,214.34196420824094 C494.22702128079385,196.53002973748224 524.7509484075886,195.2096290182832 544.6837524706293,175.5046523051053 C568.8716759998637,159.46977461630385 582.6027109034512,133.19842901840528 590.3399666509042,105.97397574778756 C602.0614041105731,92.84339608829768 620.2655621137823,64.46148803115858 640.517283030931,79.21641661345663 C660.3865868671761,91.50296810888125 645.7222471076361,60.59519091618834 657.1322088762623,53.775080097468305 C647.7166687224739,19.80011073739299 609.5039483649812,36.11138188209979 585.6541920304943,27.634774934977145 C564.0007010170696,13.132466069546044 541.5810119163543,21.49401985967281 525.7882914274029,38.058963878838526 C513.9606576939398,43.38859765042077 520.359401863597,57.339587118817136 531.962851136769,52.091564432652945 C523.63993614695,79.74213219419129 512.1679416662846,110.17079171592299 486.94049974242,126.54514873030053 C457.995411316045,139.2101809140968 441.84972763061467,101.68681266523227 424.66255735429297,85.40042021191057 C405.90314356151475,67.03911727547805 394.27238124897497,40.25063674195745 370.64454767556657,27.64587625249095 C337.77998630534034,19.324204334007522 312.8107579192659,48.18257127064698 287.9898175832004,64.43118816763648 C263.35671913608803,76.76421671869488 233.77819954577603,82.8591853335547 216.97303199324335,106.91458364776847 C189.0838290672666,140.43481334673115 206.7638598586488,191.00847956540022 177.4379254554065,223.9713126297412 C165.35879422228186,242.25059012365094 138.76507879438606,255.41464638448684 142.4194667784107,280.5372732249276 C155.3717692921969,307.4414457159587 144.02040452458917,339.5527576585467 151.09277249766194,368.4997797514045 C156.31945579277567,389.41977235932325 164.05838623353918,416.292004823283 189.39381997867036,419.3987680944773 C209.32498387816133,432.0346226319494 220.18051857144138,405.56628475896827 199.0764305534275,397.90059193702956 C173.6010131653212,386.5814952292165 170.11982645242924,354.7202132715635 168.0731785771074,330.2459517158316 C162.45425448465392,306.02764199868994 181.64394360430506,290.0048669903987 189.5690585055855,270.9956994507794 C182.87658694101174,252.42754599309382 206.47572628469186,227.1882258321393 221.4442214263641,230.94698001274512 C210.2573046359841,248.13261371478853 193.92391718064107,270.4335377094079 220.402890219386,284.58837361007284 C220.05527913555318,285.4568833732593 224.28788519887956,268.72460814197746 231.10609688084347,263.69714429141885 C230.0883149695017,250.588387439595 216.79202699657603,239.42816215292447 230.8953617616791,226.16452206713805 C255.63854108048062,209.66609962865627 250.1847728253144,257.52384491823534 245.04731442745094,271.0943509722453 C244.7754961646191,291.93373385776925 216.84397701898953,308.48502135728705 231.10609688084347,329.36912028070026 C246.73055385420028,355.1266630647184 254.06201587391158,384.6963775664775 260.0575215179947,413.87904799962945 C268.66059370744165,438.0869642593288 290.3951088003553,455.79158023912845 317.5734130480837,449.53565115267065 L322.0419954844007,449.4868088085588 L322.0420300141576,449.4867052192983 z" class="selected" stroke-opacity="1" fill-opacity="1"/></g></svg>